<svg xmlns="http://www.w3.org/2000/svg" width="94" height="18" viewBox="0 0 94 18" fill="none">
<path d="M5.72113 10.3041L0.792678 14.5739C0.28128 14.9959 0 15.5302 0 16.1254C0 16.5903 0.172844 16.9761 0.478189 17.2435C0.780864 17.5085 1.20001 17.6454 1.67673 17.6454H10.7775C11.5786 17.6454 12.1792 17.0342 12.1792 16.2188C12.1792 15.4034 11.5786 14.7921 10.7775 14.7921H4.7194L7.67271 12.2871C9.08037 11.0989 10.1393 10.1532 10.8437 9.17435C11.5546 8.18655 11.9041 7.16631 11.9041 5.83544V5.78878C11.9041 4.28571 11.3417 3.02059 10.3712 2.13273C9.40217 1.24624 8.03716 0.745442 6.44491 0.745442C5.17423 0.745442 4.139 0.988913 3.25514 1.45227C2.3723 1.9151 1.65036 2.59214 0.998511 3.44487C0.77113 3.72842 0.641871 4.06782 0.641871 4.43544C0.641871 5.25082 1.28828 5.90878 2.08936 5.90878C2.5967 5.90878 2.96408 5.69987 3.20153 5.40468C4.17143 4.21091 5.02364 3.64544 6.2386 3.64544C6.93854 3.64544 7.5442 3.86781 7.97313 4.26936C8.40028 4.66925 8.66526 5.25888 8.66526 6.02211C8.66526 7.40763 7.92328 8.43617 5.72113 10.3041Z" fill="#2D2D2D"/>
<path d="M14.7948 4.5257L14.7963 4.52528L16.2366 4.07731V16.1721C16.2366 17.0844 16.9553 17.7621 17.7987 17.7621C18.6915 17.7621 19.3608 17.0808 19.3608 16.1721V2.35878C19.3608 1.45006 18.6915 0.768775 17.7987 0.768775H17.7529C17.2926 0.768775 16.8841 0.868087 16.3316 1.03211L16.3295 1.03273L13.9003 1.82581C13.2638 2.00844 12.8439 2.51278 12.8439 3.22211C12.8439 3.97351 13.4963 4.60211 14.2455 4.60211C14.4197 4.60211 14.6184 4.57702 14.7948 4.5257Z" fill="#2D2D2D"/>
<path d="M48.3512 17.5202L48.3566 17.5184L48.3618 17.5162C48.802 17.3317 49.1967 16.8809 49.1967 16.2654C49.1967 15.5137 48.5669 14.9321 47.8639 14.9321C47.8263 14.9321 47.781 14.9388 47.7412 14.945C47.7241 14.9477 47.707 14.9505 47.6892 14.9534C47.6594 14.9582 47.6277 14.9634 47.5909 14.9689C47.4777 14.9857 47.3372 15.0021 47.1762 15.0021C46.7285 15.0021 46.4045 14.8963 46.1918 14.6895C45.9805 14.4841 45.8498 14.1505 45.8498 13.6288V7.75211H47.8639C48.615 7.75211 49.2426 7.14493 49.2426 6.37211C49.2426 5.59929 48.615 4.99211 47.8639 4.99211H45.8498V3.05878C45.8498 2.19673 45.1576 1.49211 44.3107 1.49211C43.4179 1.49211 42.7486 2.19673 42.7486 3.05878V4.99211H42.4538C41.6986 4.99211 41.098 5.6034 41.098 6.37211C41.098 7.14082 41.6986 7.75211 42.4538 7.75211H42.7486V14.0721C42.7486 15.4548 43.1181 16.4115 43.7797 17.0192C44.4381 17.6239 45.3563 17.8554 46.3967 17.8554C47.1511 17.8554 47.7188 17.7348 48.3512 17.5202Z" fill="#2D2D2D"/>
<path d="M60.4993 6.31668L60.4987 6.31616C59.4394 5.38167 58.1181 4.73544 56.1505 4.73544C52.4109 4.73544 49.6827 7.75445 49.6827 11.3421V11.3888C49.6827 14.978 52.4125 17.9254 56.1047 17.9254C58.1654 17.9254 59.5108 17.2079 60.6148 16.1335C60.9052 15.8892 61.0595 15.5383 61.0595 15.1221C61.0595 14.3576 60.463 13.7188 59.7038 13.7188C59.3164 13.7188 59.0253 13.8761 58.8365 14.0659C58.1012 14.6996 57.2905 15.1188 56.2422 15.1188C54.2143 15.1188 52.784 13.4578 52.784 11.3421V11.2954C52.784 9.22267 54.2176 7.54211 56.1276 7.54211C57.1781 7.54211 57.9207 7.93973 58.6102 8.55087C58.8278 8.74464 59.1659 8.87211 59.5433 8.87211C60.3405 8.87211 60.9908 8.24139 60.9908 7.42211C60.9908 6.89403 60.707 6.50166 60.4993 6.31668Z" fill="#2D2D2D"/>
<path fill-rule="evenodd" clip-rule="evenodd" d="M23.6096 0.162109C22.7168 0.162109 22.0704 0.820061 22.0704 1.72878V16.1954C22.0704 17.0575 22.7627 17.7621 23.6096 17.7621C24.5024 17.7621 25.1717 17.0575 25.1717 16.1954V16.0372C26.0343 17.0529 27.2737 17.9021 29.1343 17.9021C32.0931 17.9021 34.9144 15.5378 34.9144 11.3421V11.2954C34.9144 7.09929 32.0698 4.73544 29.1343 4.73544C27.2849 4.73544 26.0632 5.59336 25.1717 6.71554V1.72878C25.1717 0.816429 24.4988 0.162109 23.6096 0.162109ZM31.7673 11.3421C31.7673 13.6873 30.2717 15.1188 28.4695 15.1188C26.6651 15.1188 25.1029 13.615 25.1029 11.3421V11.2954C25.1029 9.02256 26.6651 7.51878 28.4695 7.51878C30.2704 7.51878 31.7673 8.99554 31.7673 11.2954V11.3421Z" fill="#2D2D2D"/>
<path d="M37.0022 0.713754C36.6815 0.984092 36.4873 1.37504 36.4873 1.84544V1.98544C36.4873 2.94211 37.2746 3.55211 38.2328 3.55211C39.191 3.55211 39.9783 2.94211 39.9783 1.98544V1.84544C39.9783 1.37504 39.784 0.984092 39.4634 0.713754C39.1453 0.445602 38.7109 0.302109 38.2328 0.302109C37.7547 0.302109 37.3202 0.445602 37.0022 0.713754Z" fill="#2D2D2D"/>
<path d="M38.2328 4.85211C37.3364 4.85211 36.6936 5.53707 36.6936 6.44211V16.1954C36.6936 17.1078 37.3895 17.7621 38.2328 17.7621C39.1219 17.7621 39.7949 17.1078 39.7949 16.1954V6.44211C39.7949 5.5334 39.1255 4.85211 38.2328 4.85211Z" fill="#2D2D2D"/>
<path fill-rule="evenodd" clip-rule="evenodd" d="M61.5262 11.3888C61.5262 14.982 64.3286 17.9254 68.1086 17.9254C71.9349 17.9254 74.7598 14.9116 74.7598 11.3421V11.2954C74.7598 7.67927 71.9807 4.73544 68.1545 4.73544C64.3507 4.73544 61.5262 7.72634 61.5262 11.3421V11.3888ZM71.6586 11.3888C71.6586 13.4353 70.3192 15.1188 68.1545 15.1188C66.1238 15.1188 64.6274 13.4082 64.6274 11.3421V11.2954C64.6274 9.22491 65.9903 7.54211 68.1086 7.54211C70.1845 7.54211 71.6586 9.25206 71.6586 11.3421V11.3888Z" fill="#2D2D2D"/>
<path d="M76.8093 0.713754C76.4886 0.984092 76.2944 1.37504 76.2944 1.84544V1.98544C76.2944 2.94211 77.0817 3.55211 78.0399 3.55211C78.9981 3.55211 79.7854 2.94211 79.7854 1.98544V1.84544C79.7854 1.37504 79.5911 0.984092 79.2705 0.713754C78.9524 0.445602 78.518 0.302109 78.0399 0.302109C77.5618 0.302109 77.1274 0.445602 76.8093 0.713754Z" fill="#2D2D2D"/>
<path d="M78.0399 4.85211C77.1435 4.85211 76.5007 5.53707 76.5007 6.44211V16.1954C76.5007 17.1078 77.1966 17.7621 78.0399 17.7621C78.9291 17.7621 79.602 17.1078 79.602 16.1954V6.44211C79.602 5.5334 78.9327 4.85211 78.0399 4.85211Z" fill="#2D2D2D"/>
<path d="M83.5218 4.85211C82.6254 4.85211 81.9826 5.53707 81.9826 6.44211V16.1954C81.9826 17.1078 82.6785 17.7621 83.5218 17.7621C84.4109 17.7621 85.0839 17.1078 85.0839 16.1954V10.5254C85.0839 9.58888 85.3495 8.86892 85.7935 8.38456C86.2365 7.90128 86.8725 7.63544 87.6481 7.63544C88.437 7.63544 89.0356 7.89062 89.4393 8.35763C89.8459 8.82786 90.0748 9.53575 90.0748 10.4788V16.1954C90.0748 17.1078 90.7477 17.7621 91.6369 17.7621C92.5296 17.7621 93.176 17.1042 93.176 16.1954V9.61544C93.176 8.15083 92.7781 6.92835 92.0101 6.07028C91.2402 5.21009 90.1156 4.73544 88.7026 4.73544C86.955 4.73544 85.8763 5.55639 85.0839 6.55332V6.44211C85.0839 5.5334 84.4145 4.85211 83.5218 4.85211Z" fill="#2D2D2D"/>
</svg>