<svg xmlns="http://www.w3.org/2000/svg" viewBox="0 0 1916 412">
	<path fill="#333232" d="M483 247c10 13 27 23 50 23s41-10 41-29c0-12-7-18-18-22-14-6-35-7-52-14s-25-17-25-33c0-24 20-41 54-41 28 0 46 12 55 24l-13 11c-9-10-22-19-43-19-22 0-35 10-35 25 0 9 6 15 15 19 14 5 36 6 53 13 15 6 27 17 27 36 0 31-27 46-61 46-29 0-50-12-62-27l14-12Z" />
	<path fill="#333232" d="M618 169v-31l17-6v37h31v14h-31v70c0 10 6 16 15 16 6 0 11-2 17-8l-3 17c-4 4-13 7-21 7-14 0-25-9-25-28v-74h-13v-14h13ZM692 179c8-7 22-13 40-13 27 0 45 11 45 45v73h-16v-9c-10 7-23 11-36 11-23 0-42-12-42-37 0-26 19-39 45-39 11 0 22 3 32 7v-5c0-22-12-29-29-29-13 0-23 3-33 9l-6-13Zm68 84v-34c-9-4-20-6-29-6-18 0-32 8-32 25 0 16 13 24 29 24 11 0 23-3 32-9ZM876 188c-5-4-11-5-18-5-13 0-24 5-31 22v79h-17V169h16v16c8-12 20-19 35-19 10 0 17 3 21 7l-6 15ZM904 169v-31l18-6v37h30v14h-30v70c0 10 5 16 14 16 6 0 11-2 17-8l-3 17c-4 4-13 7-21 7-13 0-25-9-25-28v-74h-13v-14h13ZM1050 137c0 6-5 11-11 11s-10-5-10-11 4-11 10-11 11 4 11 11Zm-2 32v115h-17V169h17ZM1098 169v17c9-13 22-20 38-20 24 0 40 13 40 45v73h-17v-71c0-22-11-30-28-30-14 0-25 6-32 22v79h-17V169h16Z" />
	<path fill="#333232" d="m1373 132-50 61 59 91h-21l-49-77-27 33v44h-18V132h18v84l68-84h20Z" />
	<path fill="#333232" d="M1468 188c-4-4-10-5-17-5-14 0-25 5-32 22v79h-17V169h16v16c9-12 20-19 35-19 11 0 17 3 21 7l-6 15ZM1503 169l36 93 38-93h18l-65 156h-17l18-43-46-113h18ZM1631 169v17c8-11 20-20 37-20 32 0 44 31 44 61s-12 60-44 60c-17 0-28-8-36-18v55l-17 6V169h16Zm1 34v47c7 12 16 21 32 21 24 0 32-21 32-44 0-24-8-45-32-45-16 0-25 9-32 21ZM1741 169v-31l18-6v37h30v14h-30v70c0 10 5 16 14 16 6 0 12-2 17-8l-3 17c-4 4-13 7-21 7-13 0-25-9-25-28v-74h-13v-14h13ZM1904 227c0 39-20 60-49 60-28 0-48-21-48-60 0-40 20-61 48-61s49 21 49 61Zm-80 0c0 29 12 44 31 44s32-15 32-44-13-45-32-45-31 15-31 45Z" />
</svg>
