<svg xmlns="http://www.w3.org/2000/svg" width="24" height="24" viewBox="0 0 24 24" fill="currentColor" class="icon icon-tabler icons-tabler-filled icon-tabler-star">
	<defs>
		<linearGradient xmlns="http://www.w3.org/2000/svg" id="goldGradient" x1="0" y1="1" x2="0" y2="0">
			<stop offset="0" stop-color="#8f5907"/>
			<stop offset="1" stop-color="#d6a553"/>
		</linearGradient>
	</defs>
    <path stroke="none" d="M0 0h24v24H0z" fill="none"/>
	<path fill="url(#goldGradient)" d="M8.243 7.34l-6.38 .925l-.113 .023a1 1 0 0 0 -.44 1.684l4.622 4.499l-1.09 6.355l-.013 .11a1 1 0 0 0 1.464 .944l5.706 -3l5.693 3l.1 .046a1 1 0 0 0 1.352 -1.1l-1.091 -6.355l4.624 -4.5l.078 -.085a1 1 0 0 0 -.633 -1.62l-6.38 -.926l-2.852 -5.78a1 1 0 0 0 -1.794 0l-2.853 5.78z"/>
</svg>