<svg xmlns="http://www.w3.org/2000/svg" width="1200pt" height="1200pt" version="1.1" viewBox="0 0 1200 1200">
	<path d="m1092.6 471.14c-30.094 0-55.312 20.391-63.188 48h-111.14c-23.484-95.953-89.062-175.31-176.16-217.5v-67.266c0-2.5312 2.0625-4.6406 4.5938-4.6406h80.672c7.875 27.609 33.094 48 63.188 48 36.375 0 66-29.625 66-66s-29.625-66-66-66c-30.094 0-55.312 20.391-63.188 48h-80.672c-22.406 0-40.594 18.234-40.594 40.641v52.359c-28.031-9.6562-57.75-15.516-88.594-17.203v-101.25c27.609-7.875 48-33.094 48-63.188 0-36.375-29.625-66-66-66s-66 29.625-66 66c0 30.094 20.391 55.312 48 63.188v101.11c-30.281 1.6875-60.094 7.4531-88.594 17.25v-52.266c0-22.406-18.234-40.641-40.641-40.641h-80.625c-7.875-27.609-33.094-48-63.188-48-36.375 0-66 29.625-66 66s29.625 66 66 66c30.094 0 55.312-20.391 63.188-48h80.625c2.5312 0 4.6406 2.0625 4.6406 4.6406v67.172c-23.391 11.297-45.609 25.219-65.906 41.906-7.6875 6.3281-8.7656 17.672-2.4375 25.312 6.375 7.6875 17.672 8.7656 25.312 2.4375 52.172-42.938 118.08-66.609 185.63-66.609 161.26 0 292.5 131.21 292.5 292.45 0 161.24-131.21 292.45-292.5 292.45-161.26 0-292.5-131.21-292.5-292.45 0-44.625 9.8438-87.469 29.25-127.4 4.3125-8.9531 0.60938-19.688-8.3438-24.047-9-4.3594-19.734-0.5625-24.094 8.3438-11.109 22.828-19.312 46.5-24.797 70.875h-78.984c-2.9531 0-5.3438-2.3906-5.3438-5.3438v-49.312c27.609-7.875 48-33.094 48-63.188 0-36.375-29.625-66-66-66s-66 29.625-66 66c0 30.094 20.391 55.312 48 63.188v49.312c0 22.781 18.562 41.344 41.344 41.344h72.984c-1.3125 11.953-2.0156 24.047-2.0156 36.281 0 17.859 1.8281 35.25 4.5938 52.312h-104.91c-7.875-27.609-33.094-48-63.188-48-36.375 0-66 29.625-66 66s29.625 66 66 66c30.094 0 55.312-20.391 63.188-48h112.73c25.547 91.312 89.531 166.45 173.48 207.14v73.172c0 2.5312-2.0625 4.6406-4.6406 4.6406h-80.625c-7.875-27.609-33.094-48-63.188-48-36.375 0-66 29.625-66 66s29.625 66 66 66c30.094 0 55.312-20.391 63.188-48h80.625c22.406 0 40.641-18.234 40.641-40.641v-58.219c28.031 9.6562 57.75 15.516 88.594 17.203v107.16c-27.609 7.875-48 33.094-48 63.188 0 36.375 29.625 66 66 66s66-29.625 66-66c0-30.094-20.391-55.312-48-63.188v-107.16c30.844-1.6875 60.562-7.5469 88.594-17.203v58.219c0 22.406 18.188 40.641 40.594 40.641h80.672c7.875 27.609 33.094 48 63.188 48 36.375 0 66-29.625 66-66s-29.625-66-66-66c-30.094 0-55.312 20.391-63.188 48h-80.672c-2.5312 0-4.5938-2.0625-4.5938-4.6406v-73.172c85.641-41.531 150.47-118.97 174.94-212.76h83.016c2.9531 0 5.3438 2.3906 5.3438 5.3438v49.312c-27.609 7.875-48 33.094-48 63.188 0 36.375 29.625 66 66 66s66-29.625 66-66c0-30.094-20.391-55.312-48-63.188v-49.312c0-22.781-18.562-41.344-41.344-41.344h-75.75c2.2031-15.281 3.7031-30.797 3.7031-46.688 0-14.25-1.2188-28.172-3-41.906h104.39c7.875 27.609 33.094 48 63.188 48 36.375 0 66-29.625 66-66s-29.625-66-66-66zm-202.03-289.4c16.547 0 30 13.453 30 30 0 16.547-13.453 30-30 30s-30-13.453-30-30c0-16.547 13.453-30 30-30zm-582.14 60c-16.547 0-30-13.453-30-30 0-16.547 13.453-30 30-30s30 13.453 30 30c0 16.547-13.453 30-30 30zm261.1-136.64c0-16.547 13.453-30 30-30s30 13.453 30 30-13.453 30-30 30-30-13.453-30-30zm-422.86 301.78c0-16.547 13.453-30 30-30s30 13.453 30 30-13.453 30-30 30-30-13.453-30-30zm-39.188 290.48c-16.547 0-30-13.453-30-30s13.453-30 30-30 30 13.453 30 30-13.453 30-30 30zm200.9 320.9c-16.547 0-30-13.453-30-30s13.453-30 30-30 30 13.453 30 30-13.453 30-30 30zm582.14-60c16.547 0 30 13.453 30 30s-13.453 30-30 30-30-13.453-30-30 13.453-30 30-30zm-261.1 136.64c0 16.547-13.453 30-30 30s-30-13.453-30-30 13.453-30 30-30 30 13.453 30 30zm423.89-297.32c0 16.547-13.453 30-30 30s-30-13.453-30-30 13.453-30 30-30 30 13.453 30 30zm39.188-230.48c-16.547 0-30-13.453-30-30s13.453-30 30-30 30 13.453 30 30-13.453 30-30 30zm-493.08 262.4c128.16 0 232.45-104.3 232.45-232.5 0-128.16-104.25-232.45-232.45-232.45-128.21 0-232.5 104.3-232.5 232.45 0 128.21 104.3 232.5 232.5 232.5zm0-428.95c108.33 0 196.45 88.125 196.45 196.45s-88.125 196.5-196.45 196.5-196.5-88.125-196.5-196.5c0-108.33 88.125-196.45 196.5-196.45zm-86.906 234.74v-77.906c0-35.438 28.781-64.219 64.219-64.219h4.6875v-12.75c0-9.9375 8.0625-18 18-18s18 8.0625 18 18v12.75h4.6406c35.438 0 64.219 28.781 64.219 64.219 0 9.9375-8.0625 18-18 18s-18-8.0625-18-18c0-15.562-12.656-28.219-28.219-28.219h-45.281c-15.562 0-28.219 12.656-28.219 28.219v77.906c0 15.562 12.656 28.219 28.219 28.219h45.281c15.562 0 28.219-12.656 28.219-28.219 0-9.9375 8.0625-18 18-18s18 8.0625 18 18c0 35.391-28.781 64.219-64.219 64.219h-4.6406v12.375c0 9.9375-8.0625 18-18 18s-18-8.0625-18-18v-12.375h-4.6875c-35.438 0-64.219-28.781-64.219-64.219zm-138.19-228.56c0 10.078-8.1562 18-18 18s-18-7.9219-18-18c0-9.8438 8.1562-18 18-18s18 8.1562 18 18z" />
</svg>
